<?xml version="1.0" encoding="UTF-8"?>
<svg id="Layer_13" data-name="Layer 13" xmlns="http://www.w3.org/2000/svg" viewBox="0 0 500 500">
  <defs>
    <style>
      .cls-1 {
        fill: none;
        stroke: #000;
        stroke-linecap: round;
        stroke-miterlimit: 10;
        stroke-width: 12px;
      }
    </style>
  </defs>
  <g>
    <circle class="cls-1" cx="238.67" cy="161.59" r="47.16"/>
    <path class="cls-1" d="m370.13,315.83c.38-2.4.63-4.83.63-7.34s-.25-4.89-.62-7.26c4.93-3.51,9.8-7.11,14.55-10.89,0,0-14.82-25.68-14.82-25.68-5.59,2.27-11.12,4.69-16.61,7.19-3.8-3.08-8.11-5.55-12.75-7.34-.59-6.01-1.25-12.01-2.08-18h-29.65c-1,6.02-1.69,12.04-2.24,18.06-4.59,1.78-8.84,4.24-12.6,7.28-5.49-2.5-11.02-4.91-16.61-7.19l-14.82,25.68c4.72,3.88,9.59,7.49,14.53,10.98-.36,2.35-.6,4.73-.6,7.17s.25,4.95.63,7.34c-4.92,3.52-9.79,7.1-14.56,10.81l14.82,25.68c5.71-2.15,11.26-4.55,16.75-7.08,3.74,3.01,7.96,5.44,12.51,7.2.57,6.02,1.28,12.04,2.18,18.04h29.65c.83-5.99,1.5-11.99,2.08-18,4.61-1.77,8.88-4.22,12.66-7.27,5.5,2.51,11.05,4.91,16.7,7.12,0,0,14.82-25.68,14.82-25.68-4.77-3.71-9.64-7.3-14.56-10.81Zm-46.53,11.53c-10.42,0-18.86-8.45-18.86-18.86s8.45-18.86,18.86-18.86,18.86,8.45,18.86,18.86-8.45,18.86-18.86,18.86Z"/>
    <path class="cls-1" d="m294.13,244.2c-14.88-12.85-34.25-20.64-55.45-20.64-46.9,0-84.92,38.02-84.92,84.92"/>
  </g>
  <circle class="cls-1" cx="250" cy="250" r="225"/>
</svg>